# xmcd
#
# Track frame offsets: 
#        150
#        25820
#        56900
#        84437
#        118772
#        146205
#
# Disc length: 2290 seconds
#
# Revision: 2
# Processed by: cddbd v1.5.1PL0 Copyright (c) Steve Scherf et al.
# Submitted via: ExactAudioCopy v0.95a5
#
DISCID=5208f006
DTITLE=McCoy Tyner - Tender Moments
DYEAR=1900
DGENRE=
TTITLE0=Mode To John
TTITLE1=Man From Tanganyika
TTITLE2=The High Priest
TTITLE3=Utopia
TTITLE4=All My Yesterdays
TTITLE5=Lee Plus Three
EXTD=
EXTT0=
EXTT1=
EXTT2=
EXTT3=
EXTT4=
EXTT5=
PLAYORDER=
